<?xml version="1.0" encoding="utf-8"?>
<!-- Generator: Adobe Illustrator 16.0.0, SVG Export Plug-In . SVG Version: 6.00 Build 0)  -->
<!DOCTYPE svg PUBLIC "-//W3C//DTD SVG 1.1//EN" "http://www.w3.org/Graphics/SVG/1.1/DTD/svg11.dtd">
<svg version="1.1" id="圖層_1" xmlns="http://www.w3.org/2000/svg" xmlns:xlink="http://www.w3.org/1999/xlink" x="0px" y="0px"
	 width="181.61px" height="181.61px" viewBox="0 0 181.61 181.61" enable-background="new 0 0 181.61 181.61" xml:space="preserve">
<g>
	<path fill="#35B9C3" stroke="#55567C" stroke-width="3" stroke-linejoin="round" stroke-miterlimit="10" d="M173.552,180.096
		c3.716,0,5.601-2.134,7.265-4.014c0.425-0.484,0.388-1.227-0.088-1.658c-0.477-0.433-1.206-0.395-1.631,0.089
		c-1.535,1.733-2.861,3.233-5.546,3.233c-2.69,0-4.013-1.5-5.546-3.233c-1.664-1.88-3.546-4.013-7.261-4.013
		c-3.716,0-5.602,2.133-7.266,4.013c-1.534,1.733-2.856,3.233-5.545,3.233c-2.69,0-4.012-1.5-5.546-3.233
		c-1.664-1.88-3.545-4.013-7.266-4.013c-3.716,0-5.602,2.133-7.261,4.013c-1.534,1.733-2.861,3.233-5.546,3.233
		s-4.011-1.5-5.546-3.233c-1.663-1.88-3.544-4.013-7.26-4.013c-3.717,0-5.602,2.133-7.262,4.013
		c-1.533,1.733-2.855,3.233-5.545,3.233s-4.012-1.5-5.546-3.233l0.171,0.192c-0.037-0.065-0.083-0.131-0.139-0.192
		c-1.664-1.88-3.544-4.013-7.265-4.013c-3.716,0-5.602,2.133-7.265,4.013c-1.535,1.733-2.861,3.233-5.546,3.233
		c-2.69,0-4.012-1.5-5.546-3.233c-1.664-1.88-3.545-4.013-7.261-4.013c-3.715,0-5.601,2.133-7.26,4.013
		c-1.534,1.733-2.856,3.233-5.546,3.233s-4.012-1.5-5.546-3.233c-1.664-1.88-3.545-4.013-7.26-4.013
		c-3.716,0-5.602,2.133-7.261,4.013c-1.534,1.733-2.856,3.233-5.546,3.233c-2.689,0-4.012-1.5-5.546-3.233
		c-1.664-1.88-3.544-4.013-7.26-4.013s-5.602,2.133-7.261,4.013l-0.019,0.019c-0.434,0.484-0.397,1.227,0.079,1.659
		s1.202,0.395,1.631-0.089l0.019-0.02c1.535-1.734,2.856-3.232,5.546-3.232c2.69,0,4.012,1.498,5.546,3.232
		c1.664,1.88,3.545,4.014,7.261,4.014s5.601-2.134,7.26-4.014c1.535-1.734,2.856-3.232,5.546-3.232s4.012,1.498,5.546,3.232
		c1.664,1.88,3.545,4.014,7.26,4.014c3.716,0,5.602-2.134,7.261-4.014c1.534-1.734,2.856-3.232,5.546-3.232
		c2.689,0,4.011,1.498,5.546,3.232c1.664,1.88,3.544,4.014,7.26,4.014s5.602-2.134,7.265-4.014c1.535-1.734,2.856-3.232,5.546-3.232
		c2.579,0,3.901,1.377,5.361,3.021c0.037,0.065,0.083,0.131,0.139,0.192l0.018,0.019c1.664,1.88,3.545,4.014,7.261,4.014
		s5.602-2.134,7.26-4.014c1.535-1.734,2.857-3.232,5.547-3.232s4.012,1.498,5.546,3.232c1.664,1.88,3.545,4.014,7.261,4.014
		c3.715,0,5.601-2.134,7.26-4.014c1.534-1.734,2.861-3.232,5.546-3.232c2.69,0,4.012,1.498,5.546,3.232
		c1.664,1.88,3.545,4.014,7.261,4.014s5.602-2.134,7.265-4.014c1.535-1.734,2.857-3.232,5.546-3.232c2.69,0,4.012,1.498,5.546,3.232
		C167.954,177.967,169.835,180.096,173.552,180.096z"/>
</g>
<g>
	<path fill="#E83828" stroke="#55567C" stroke-width="3" stroke-linejoin="round" stroke-miterlimit="10" d="M173.552,11.096
		c3.716,0,5.601-2.134,7.265-4.014c0.425-0.484,0.388-1.227-0.088-1.658c-0.477-0.433-1.206-0.395-1.631,0.089
		c-1.535,1.733-2.861,3.233-5.546,3.233c-2.69,0-4.013-1.5-5.546-3.233c-1.664-1.88-3.546-4.013-7.261-4.013
		c-3.716,0-5.602,2.133-7.266,4.013c-1.534,1.733-2.856,3.233-5.545,3.233c-2.69,0-4.012-1.5-5.546-3.233
		c-1.664-1.88-3.545-4.013-7.266-4.013c-3.716,0-5.602,2.133-7.261,4.013c-1.534,1.733-2.861,3.233-5.546,3.233
		s-4.011-1.5-5.546-3.233c-1.663-1.88-3.544-4.013-7.26-4.013c-3.717,0-5.602,2.133-7.262,4.013
		c-1.533,1.733-2.855,3.233-5.545,3.233s-4.012-1.5-5.546-3.233l0.171,0.192c-0.037-0.065-0.083-0.131-0.139-0.192
		C89.526,3.633,87.646,1.5,83.925,1.5c-3.716,0-5.602,2.133-7.265,4.013c-1.535,1.733-2.861,3.233-5.546,3.233
		c-2.69,0-4.012-1.5-5.546-3.233C63.904,3.633,62.023,1.5,58.308,1.5c-3.715,0-5.601,2.133-7.26,4.013
		c-1.534,1.733-2.856,3.233-5.546,3.233s-4.012-1.5-5.546-3.233c-1.664-1.88-3.545-4.013-7.26-4.013
		c-3.716,0-5.602,2.133-7.261,4.013c-1.534,1.733-2.856,3.233-5.546,3.233c-2.689,0-4.012-1.5-5.546-3.233
		C12.679,3.633,10.798,1.5,7.083,1.5S1.481,3.633-0.178,5.513l-0.019,0.019C-0.631,6.016-0.594,6.758-0.118,7.19
		s1.202,0.395,1.631-0.089l0.019-0.02C3.066,5.348,4.388,3.85,7.078,3.85c2.69,0,4.012,1.498,5.546,3.232
		c1.664,1.88,3.545,4.014,7.261,4.014s5.601-2.134,7.26-4.014C28.679,5.348,30,3.85,32.69,3.85s4.012,1.498,5.546,3.232
		c1.664,1.88,3.545,4.014,7.26,4.014c3.716,0,5.602-2.134,7.261-4.014c1.534-1.734,2.856-3.232,5.546-3.232
		c2.689,0,4.011,1.498,5.546,3.232c1.664,1.88,3.544,4.014,7.26,4.014s5.602-2.134,7.265-4.014c1.535-1.734,2.856-3.232,5.546-3.232
		c2.579,0,3.901,1.377,5.361,3.021c0.037,0.065,0.083,0.131,0.139,0.192l0.018,0.019c1.664,1.88,3.545,4.014,7.261,4.014
		s5.602-2.134,7.26-4.014c1.535-1.734,2.857-3.232,5.547-3.232s4.012,1.498,5.546,3.232c1.664,1.88,3.545,4.014,7.261,4.014
		c3.715,0,5.601-2.134,7.26-4.014c1.534-1.734,2.861-3.232,5.546-3.232c2.69,0,4.012,1.498,5.546,3.232
		c1.664,1.88,3.545,4.014,7.261,4.014s5.602-2.134,7.265-4.014c1.535-1.734,2.857-3.232,5.546-3.232c2.69,0,4.012,1.498,5.546,3.232
		C167.954,8.967,169.835,11.096,173.552,11.096z"/>
</g>
</svg>
